<svg width="50" height="13" viewBox="0 0 50 13" fill="none" xmlns="http://www.w3.org/2000/svg">
<rect y="0.26416" width="49.482" height="12.1077" rx="6.05383" fill="#323232"/>
<g clip-path="url(#clip0_248_4034)">
<path d="M5.57533 8.82013C5.57533 8.82013 5.15836 8.82013 5.15836 8.40315C5.15836 7.98617 5.57533 6.73524 7.66022 6.73524C9.7451 6.73524 10.1621 7.98617 10.1621 8.40315C10.1621 8.82013 9.7451 8.82013 9.7451 8.82013H5.57533ZM7.66022 6.31827C7.99198 6.31827 8.31016 6.18647 8.54476 5.95188C8.77935 5.71728 8.91115 5.3991 8.91115 5.06734C8.91115 4.73557 8.77935 4.41739 8.54476 4.1828C8.31016 3.9482 7.99198 3.81641 7.66022 3.81641C7.32845 3.81641 7.01027 3.9482 6.77568 4.1828C6.54108 4.41739 6.40929 4.73557 6.40929 5.06734C6.40929 5.3991 6.54108 5.71728 6.77568 5.95188C7.01027 6.18647 7.32845 6.31827 7.66022 6.31827V6.31827Z" fill="#E1E1E1"/>
</g>
<path d="M13.5168 8.31787V4.6788H14.8815C15.161 4.6788 15.3956 4.73092 15.5851 4.83517C15.7758 4.93941 15.9197 5.08275 16.0169 5.26517C16.1152 5.44642 16.1644 5.65254 16.1644 5.88353C16.1644 6.1169 16.1152 6.3242 16.0169 6.50544C15.9186 6.68669 15.7734 6.82943 15.5815 6.93367C15.3896 7.03673 15.1533 7.08826 14.8726 7.08826H13.9681V6.54631H14.7837C14.9472 6.54631 15.0811 6.51788 15.1853 6.46102C15.2895 6.40416 15.3665 6.32598 15.4163 6.22647C15.4672 6.12697 15.4927 6.01265 15.4927 5.88353C15.4927 5.75441 15.4672 5.64069 15.4163 5.54237C15.3665 5.44405 15.289 5.36764 15.1835 5.31315C15.0793 5.25748 14.9448 5.22964 14.7802 5.22964H14.176V8.31787H13.5168ZM17.8777 8.37118C17.6041 8.37118 17.3678 8.31432 17.1688 8.2006C16.9709 8.08569 16.8187 7.9234 16.7121 7.71373C16.6055 7.50287 16.5522 7.2547 16.5522 6.96921C16.5522 6.68846 16.6055 6.44207 16.7121 6.23003C16.8199 6.0168 16.9703 5.85096 17.1634 5.7325C17.3565 5.61285 17.5834 5.55303 17.844 5.55303C18.0122 5.55303 18.1709 5.58028 18.3202 5.63477C18.4706 5.68807 18.6033 5.771 18.7182 5.88353C18.8343 5.99607 18.9255 6.1394 18.9918 6.31354C19.0582 6.48649 19.0913 6.69261 19.0913 6.9319V7.12913H16.8542V6.69557H18.4748C18.4736 6.57237 18.4469 6.4628 18.3948 6.36685C18.3427 6.26971 18.2698 6.1933 18.1762 6.13763C18.0838 6.08195 17.9761 6.05411 17.8529 6.05411C17.7214 6.05411 17.6059 6.0861 17.5064 6.15007C17.4069 6.21285 17.3293 6.29577 17.2736 6.39883C17.2191 6.50071 17.1913 6.61265 17.1901 6.73466V7.11314C17.1901 7.27188 17.2191 7.4081 17.2771 7.52182C17.3352 7.63436 17.4163 7.72084 17.5206 7.78125C17.6248 7.84048 17.7468 7.87009 17.8866 7.87009C17.9802 7.87009 18.0649 7.85706 18.1407 7.831C18.2165 7.80376 18.2823 7.76407 18.3379 7.71195C18.3936 7.65983 18.4357 7.59527 18.4641 7.51827L19.0647 7.58579C19.0268 7.74453 18.9545 7.88313 18.8479 8.00158C18.7425 8.11886 18.6074 8.21007 18.4428 8.27523C18.2781 8.33919 18.0898 8.37118 17.8777 8.37118ZM19.6355 8.31787V5.58857H20.2592V6.04345H20.2876C20.3374 5.8859 20.4227 5.76448 20.5435 5.67919C20.6655 5.59271 20.8047 5.54948 20.9611 5.54948C20.9966 5.54948 21.0363 5.55125 21.0801 5.55481C21.1251 5.55718 21.1625 5.56132 21.1921 5.56725V6.15895C21.1648 6.14947 21.1216 6.14118 21.0624 6.13407C21.0043 6.12578 20.948 6.12164 20.8936 6.12164C20.7763 6.12164 20.6709 6.1471 20.5773 6.19804C20.4849 6.24779 20.412 6.31709 20.3587 6.40594C20.3054 6.49478 20.2788 6.59725 20.2788 6.71334V8.31787H19.6355ZM23.7766 6.30999L23.1902 6.37395C23.1736 6.31472 23.1446 6.25905 23.1031 6.20693C23.0628 6.1548 23.0084 6.11275 22.9396 6.08077C22.8709 6.04878 22.7868 6.03279 22.6873 6.03279C22.5535 6.03279 22.4409 6.06181 22.3497 6.11986C22.2597 6.1779 22.2153 6.25313 22.2165 6.34552C22.2153 6.42489 22.2443 6.48945 22.3035 6.5392C22.3639 6.58896 22.4634 6.62983 22.602 6.66181L23.0676 6.76132C23.3258 6.81699 23.5177 6.90524 23.6433 7.02607C23.77 7.1469 23.834 7.30504 23.8352 7.5005C23.834 7.67227 23.7837 7.8239 23.6842 7.95539C23.5858 8.08569 23.449 8.18757 23.2737 8.26101C23.0984 8.33446 22.897 8.37118 22.6696 8.37118C22.3355 8.37118 22.0666 8.30129 21.8628 8.1615C21.6591 8.02054 21.5377 7.82449 21.4986 7.57335L22.1258 7.51294C22.1543 7.63614 22.2147 7.72913 22.3071 7.79191C22.3995 7.8547 22.5197 7.88609 22.6678 7.88609C22.8206 7.88609 22.9432 7.8547 23.0356 7.79191C23.1292 7.72913 23.176 7.65154 23.176 7.55914C23.176 7.48096 23.1458 7.4164 23.0853 7.36546C23.0261 7.31452 22.9337 7.27543 22.8082 7.24818L22.3426 7.15045C22.0808 7.09596 21.8871 7.00416 21.7616 6.87504C21.636 6.74473 21.5738 6.58007 21.575 6.38106C21.5738 6.21285 21.6194 6.06714 21.7118 5.94395C21.8054 5.81956 21.9351 5.72361 22.101 5.65609C22.268 5.58738 22.4605 5.55303 22.6784 5.55303C22.9983 5.55303 23.25 5.62115 23.4336 5.75737C23.6184 5.8936 23.7327 6.07781 23.7766 6.30999ZM25.5561 8.37118C25.2896 8.37118 25.0586 8.31254 24.8631 8.19527C24.6677 8.07799 24.516 7.91392 24.4082 7.70307C24.3016 7.49221 24.2483 7.24581 24.2483 6.96388C24.2483 6.68195 24.3016 6.43496 24.4082 6.22292C24.516 6.01088 24.6677 5.84622 24.8631 5.72894C25.0586 5.61167 25.2896 5.55303 25.5561 5.55303C25.8226 5.55303 26.0536 5.61167 26.2491 5.72894C26.4446 5.84622 26.5956 6.01088 26.7022 6.22292C26.81 6.43496 26.8639 6.68195 26.8639 6.96388C26.8639 7.24581 26.81 7.49221 26.7022 7.70307C26.5956 7.91392 26.4446 8.07799 26.2491 8.19527C26.0536 8.31254 25.8226 8.37118 25.5561 8.37118ZM25.5597 7.85588C25.7042 7.85588 25.825 7.8162 25.9222 7.73683C26.0193 7.65628 26.0915 7.54848 26.1389 7.41343C26.1875 7.27839 26.2118 7.12795 26.2118 6.9621C26.2118 6.79508 26.1875 6.64404 26.1389 6.509C26.0915 6.37277 26.0193 6.26438 25.9222 6.18383C25.825 6.10327 25.7042 6.063 25.5597 6.063C25.4116 6.063 25.2884 6.10327 25.1901 6.18383C25.0929 6.26438 25.0201 6.37277 24.9715 6.509C24.9241 6.64404 24.9004 6.79508 24.9004 6.9621C24.9004 7.12795 24.9241 7.27839 24.9715 7.41343C25.0201 7.54848 25.0929 7.65628 25.1901 7.73683C25.2884 7.8162 25.4116 7.85588 25.5597 7.85588ZM28.0531 6.71867V8.31787H27.4099V5.58857H28.0247V6.05234H28.0566C28.1194 5.89952 28.2195 5.7781 28.3569 5.68807C28.4955 5.59805 28.6667 5.55303 28.8705 5.55303C29.0588 5.55303 29.2229 5.59331 29.3627 5.67386C29.5036 5.75441 29.6126 5.87109 29.6896 6.02391C29.7678 6.17672 29.8063 6.36211 29.8051 6.58007V8.31787H29.1619V6.67958C29.1619 6.49715 29.1145 6.35441 29.0197 6.25135C28.9261 6.14829 28.7964 6.09676 28.6306 6.09676C28.518 6.09676 28.4179 6.12164 28.3303 6.17139C28.2438 6.21996 28.1757 6.29044 28.1259 6.38284C28.0774 6.47524 28.0531 6.58718 28.0531 6.71867ZM31.2444 8.37295C31.0714 8.37295 30.9157 8.34216 30.7771 8.28056C30.6396 8.21777 30.5307 8.12537 30.4501 8.00336C30.3707 7.88135 30.3311 7.73091 30.3311 7.55203C30.3311 7.39803 30.3595 7.27069 30.4164 7.17C30.4732 7.06931 30.5508 6.98876 30.6491 6.92834C30.7474 6.86793 30.8582 6.82232 30.9814 6.79152C31.1058 6.75954 31.2343 6.73644 31.367 6.72222C31.5269 6.70564 31.6566 6.69083 31.7561 6.6778C31.8556 6.66359 31.9279 6.64226 31.9729 6.61383C32.0191 6.58422 32.0422 6.53861 32.0422 6.47701V6.46635C32.0422 6.33249 32.0025 6.22884 31.9232 6.1554C31.8438 6.08195 31.7295 6.04523 31.5802 6.04523C31.4227 6.04523 31.2977 6.07958 31.2053 6.14829C31.1141 6.217 31.0525 6.29814 31.0205 6.39172L30.4199 6.30643C30.4673 6.14059 30.5455 6.00199 30.6545 5.89064C30.7634 5.7781 30.8967 5.694 31.0543 5.63832C31.2118 5.58146 31.3859 5.55303 31.5767 5.55303C31.7081 5.55303 31.839 5.56843 31.9694 5.59923C32.0997 5.63003 32.2187 5.68097 32.3265 5.75204C32.4343 5.82193 32.5208 5.91729 32.5859 6.03812C32.6523 6.15895 32.6854 6.30999 32.6854 6.49123V8.31787H32.0671V7.94295H32.0458C32.0067 8.01876 31.9516 8.08984 31.8805 8.15617C31.8106 8.22133 31.7224 8.27404 31.6158 8.31432C31.5103 8.35341 31.3865 8.37295 31.2444 8.37295ZM31.4114 7.9003C31.5405 7.9003 31.6525 7.87483 31.7472 7.8239C31.842 7.77177 31.9149 7.70307 31.9658 7.61778C32.0179 7.53249 32.044 7.4395 32.044 7.3388V7.01719C32.0238 7.03377 31.9895 7.04917 31.9409 7.06339C31.8935 7.0776 31.8402 7.09004 31.781 7.1007C31.7218 7.11136 31.6631 7.12084 31.6051 7.12913C31.547 7.13742 31.4967 7.14453 31.4541 7.15045C31.3581 7.16349 31.2722 7.18481 31.1964 7.21442C31.1206 7.24404 31.0608 7.2855 31.0169 7.3388C30.9731 7.39093 30.9512 7.45845 30.9512 7.54137C30.9512 7.65983 30.9944 7.74927 31.0809 7.80968C31.1674 7.87009 31.2775 7.9003 31.4114 7.9003ZM33.9755 4.6788V8.31787H33.3322V4.6788H33.9755ZM39.0214 5.90663H38.3568C38.3379 5.79765 38.3029 5.70111 38.252 5.617C38.2011 5.53171 38.1377 5.45945 38.0619 5.40022C37.986 5.34099 37.8996 5.29657 37.8024 5.26695C37.7065 5.23615 37.6028 5.22075 37.4915 5.22075C37.2937 5.22075 37.1183 5.27051 36.9655 5.37001C36.8127 5.46833 36.6931 5.61285 36.6066 5.80357C36.5201 5.99311 36.4769 6.2247 36.4769 6.49834C36.4769 6.77672 36.5201 7.01127 36.6066 7.20198C36.6942 7.39152 36.8139 7.53486 36.9655 7.63199C37.1183 7.72794 37.2931 7.77592 37.4897 7.77592C37.5987 7.77592 37.7006 7.7617 37.7953 7.73327C37.8913 7.70366 37.9772 7.66042 38.053 7.60356C38.13 7.5467 38.1945 7.47681 38.2467 7.39389C38.3 7.31097 38.3367 7.2162 38.3568 7.10959L39.0214 7.11314C38.9965 7.28609 38.9426 7.44838 38.8597 7.60001C38.7779 7.75164 38.6707 7.88549 38.5381 8.00158C38.4054 8.11649 38.2502 8.20652 38.0725 8.27167C37.8948 8.33564 37.6976 8.36762 37.4808 8.36762C37.161 8.36762 36.8755 8.29359 36.6244 8.14551C36.3732 7.99744 36.1754 7.78362 36.0309 7.50406C35.8864 7.22449 35.8141 6.88925 35.8141 6.49834C35.8141 6.10624 35.8869 5.771 36.0327 5.49262C36.1784 5.21305 36.3768 4.99923 36.6279 4.85116C36.879 4.70309 37.1633 4.62905 37.4808 4.62905C37.6834 4.62905 37.8717 4.65748 38.0459 4.71434C38.22 4.7712 38.3752 4.85471 38.5114 4.96488C38.6476 5.07386 38.7596 5.20772 38.8472 5.36646C38.9361 5.52401 38.9941 5.70407 39.0214 5.90663ZM40.382 8.37295C40.2091 8.37295 40.0533 8.34216 39.9147 8.28056C39.7773 8.21777 39.6683 8.12537 39.5878 8.00336C39.5084 7.88135 39.4687 7.73091 39.4687 7.55203C39.4687 7.39803 39.4971 7.27069 39.554 7.17C39.6109 7.06931 39.6885 6.98876 39.7868 6.92834C39.8851 6.86793 39.9959 6.82232 40.1191 6.79152C40.2434 6.75954 40.372 6.73644 40.5046 6.72222C40.6646 6.70564 40.7943 6.69083 40.8938 6.6778C40.9933 6.66359 41.0655 6.64226 41.1106 6.61383C41.1568 6.58422 41.1799 6.53861 41.1799 6.47701V6.46635C41.1799 6.33249 41.1402 6.22884 41.0608 6.1554C40.9814 6.08195 40.8671 6.04523 40.7179 6.04523C40.5603 6.04523 40.4353 6.07958 40.3429 6.14829C40.2517 6.217 40.1901 6.29814 40.1581 6.39172L39.5576 6.30643C39.6049 6.14059 39.6831 6.00199 39.7921 5.89064C39.9011 5.7781 40.0344 5.694 40.1919 5.63832C40.3495 5.58146 40.5236 5.55303 40.7143 5.55303C40.8458 5.55303 40.9767 5.56843 41.107 5.59923C41.2373 5.63003 41.3564 5.68097 41.4642 5.75204C41.572 5.82193 41.6584 5.91729 41.7236 6.03812C41.7899 6.15895 41.8231 6.30999 41.8231 6.49123V8.31787H41.2047V7.94295H41.1834C41.1443 8.01876 41.0892 8.08984 41.0182 8.15617C40.9483 8.22133 40.86 8.27404 40.7534 8.31432C40.648 8.35341 40.5242 8.37295 40.382 8.37295ZM40.5491 7.9003C40.6782 7.9003 40.7901 7.87483 40.8849 7.8239C40.9797 7.77177 41.0525 7.70307 41.1035 7.61778C41.1556 7.53249 41.1816 7.4395 41.1816 7.3388V7.01719C41.1615 7.03377 41.1271 7.04917 41.0786 7.06339C41.0312 7.0776 40.9779 7.09004 40.9187 7.1007C40.8594 7.11136 40.8008 7.12084 40.7427 7.12913C40.6847 7.13742 40.6344 7.14453 40.5917 7.15045C40.4958 7.16349 40.4099 7.18481 40.3341 7.21442C40.2582 7.24404 40.1984 7.2855 40.1546 7.3388C40.1108 7.39093 40.0888 7.45845 40.0888 7.54137C40.0888 7.65983 40.1321 7.74927 40.2186 7.80968C40.305 7.87009 40.4152 7.9003 40.5491 7.9003ZM43.1131 4.6788V8.31787H42.4699V4.6788H43.1131ZM44.4178 4.6788V8.31787H43.7746V4.6788H44.4178Z" fill="#E1E1E1"/>
<defs>
<clipPath id="clip0_248_4034">
<rect width="6.67163" height="6.67163" fill="white" transform="translate(4.32416 2.98242)"/>
</clipPath>
</defs>
</svg>
