<svg width="57" height="13" viewBox="0 0 57 13" fill="none" xmlns="http://www.w3.org/2000/svg">
<rect x="0.36377" y="0.687988" width="56.096" height="12.1698" rx="6.08488" fill="#323232"/>
<path d="M5.78471 9.27472C5.78471 9.27472 5.36774 9.27472 5.36774 8.85774C5.36774 8.44076 5.78471 7.18983 7.8696 7.18983C9.95448 7.18983 10.3715 8.44076 10.3715 8.85774C10.3715 9.27472 9.95448 9.27472 9.95448 9.27472H5.78471ZM7.8696 6.77286C8.20136 6.77286 8.51954 6.64106 8.75414 6.40647C8.98873 6.17187 9.12053 5.85369 9.12053 5.52193C9.12053 5.19016 8.98873 4.87198 8.75414 4.63739C8.51954 4.40279 8.20136 4.271 7.8696 4.271C7.53783 4.271 7.21965 4.40279 6.98506 4.63739C6.75046 4.87198 6.61867 5.19016 6.61867 5.52193C6.61867 5.85369 6.75046 6.17187 6.98506 6.40647C7.21965 6.64106 7.53783 6.77286 7.8696 6.77286V6.77286Z" fill="#E1E1E1"/>
<path d="M13.5479 8.09773V7.57355L15.092 5.13388H15.5292V5.88017H15.2626L14.2232 7.52735V7.55578H16.3785V8.09773H13.5479ZM15.284 8.77295V7.93781L15.2911 7.70326V5.13388H15.913V8.77295H15.284ZM17.5397 7.91649L17.5379 7.13999H17.641L18.6218 6.04365H19.3735L18.167 7.38698H18.0337L17.5397 7.91649ZM16.9533 8.77295V5.13388H17.5966V8.77295H16.9533ZM18.6663 8.77295L17.7778 7.5309L18.2114 7.0778L19.4357 8.77295H18.6663ZM21.0717 8.77295V5.13388H22.4364C22.7159 5.13388 22.9505 5.186 23.14 5.29025C23.3307 5.39449 23.4747 5.53783 23.5718 5.72025C23.6701 5.9015 23.7193 6.10761 23.7193 6.33861C23.7193 6.57198 23.6701 6.77928 23.5718 6.96052C23.4735 7.14176 23.3284 7.28451 23.1365 7.38875C22.9446 7.49181 22.7082 7.54334 22.4275 7.54334H21.5231V7.00139H22.3386C22.5021 7.00139 22.636 6.97296 22.7402 6.9161C22.8445 6.85924 22.9215 6.78106 22.9712 6.68155C23.0222 6.58204 23.0476 6.46773 23.0476 6.33861C23.0476 6.20949 23.0222 6.09577 22.9712 5.99745C22.9215 5.89913 22.8439 5.82272 22.7384 5.76823C22.6342 5.71255 22.4998 5.68472 22.3351 5.68472H21.731V8.77295H21.0717ZM25.4327 8.82626C25.159 8.82626 24.9227 8.7694 24.7237 8.65567C24.5259 8.54077 24.3736 8.37848 24.267 8.16881C24.1604 7.95795 24.1071 7.70978 24.1071 7.42429C24.1071 7.14354 24.1604 6.89715 24.267 6.6851C24.3748 6.47188 24.5253 6.30603 24.7183 6.18757C24.9114 6.06793 25.1383 6.00811 25.3989 6.00811C25.5671 6.00811 25.7258 6.03535 25.8751 6.08985C26.0255 6.14315 26.1582 6.22607 26.2731 6.33861C26.3892 6.45115 26.4804 6.59448 26.5468 6.76862C26.6131 6.94157 26.6463 7.14769 26.6463 7.38698V7.58421H24.4092V7.15065H26.0297C26.0285 7.02745 26.0019 6.91788 25.9497 6.82192C25.8976 6.72479 25.8248 6.64838 25.7312 6.59271C25.6388 6.53703 25.531 6.50919 25.4078 6.50919C25.2763 6.50919 25.1608 6.54118 25.0613 6.60514C24.9618 6.66793 24.8842 6.75085 24.8285 6.85391C24.774 6.95578 24.7462 7.06773 24.745 7.18974V7.56822C24.745 7.72695 24.774 7.86318 24.8321 7.9769C24.8901 8.08944 24.9713 8.17591 25.0755 8.23633C25.1797 8.29556 25.3018 8.32517 25.4415 8.32517C25.5351 8.32517 25.6198 8.31214 25.6956 8.28608C25.7715 8.25884 25.8372 8.21915 25.8929 8.16703C25.9485 8.11491 25.9906 8.05035 26.019 7.97335L26.6196 8.04087C26.5817 8.19961 26.5095 8.3382 26.4028 8.45666C26.2974 8.57394 26.1624 8.66515 25.9977 8.7303C25.8331 8.79427 25.6447 8.82626 25.4327 8.82626ZM28.381 8.82626C28.1144 8.82626 27.8834 8.76762 27.688 8.65034C27.4925 8.53307 27.3409 8.369 27.2331 8.15815C27.1265 7.94729 27.0732 7.70089 27.0732 7.41896C27.0732 7.13703 27.1265 6.89004 27.2331 6.678C27.3409 6.46595 27.4925 6.3013 27.688 6.18402C27.8834 6.06675 28.1144 6.00811 28.381 6.00811C28.6475 6.00811 28.8785 6.06675 29.0739 6.18402C29.2694 6.3013 29.4204 6.46595 29.5271 6.678C29.6349 6.89004 29.6888 7.13703 29.6888 7.41896C29.6888 7.70089 29.6349 7.94729 29.5271 8.15815C29.4204 8.369 29.2694 8.53307 29.0739 8.65034C28.8785 8.76762 28.6475 8.82626 28.381 8.82626ZM28.3845 8.31096C28.529 8.31096 28.6499 8.27127 28.747 8.19191C28.8441 8.11135 28.9164 8.00356 28.9638 7.86851C29.0123 7.73347 29.0366 7.58303 29.0366 7.41718C29.0366 7.25015 29.0123 7.09912 28.9638 6.96408C28.9164 6.82785 28.8441 6.71946 28.747 6.6389C28.6499 6.55835 28.529 6.51808 28.3845 6.51808C28.2364 6.51808 28.1132 6.55835 28.0149 6.6389C27.9178 6.71946 27.8449 6.82785 27.7964 6.96408C27.749 7.09912 27.7253 7.25015 27.7253 7.41718C27.7253 7.58303 27.749 7.73347 27.7964 7.86851C27.8449 8.00356 27.9178 8.11135 28.0149 8.19191C28.1132 8.27127 28.2364 8.31096 28.3845 8.31096ZM30.2347 9.79644V6.04365H30.8673V6.49498H30.9046C30.9378 6.42864 30.9845 6.35816 31.045 6.28353C31.1054 6.20771 31.1871 6.14315 31.2902 6.08985C31.3932 6.03535 31.5247 6.00811 31.6846 6.00811C31.8955 6.00811 32.0856 6.06201 32.255 6.16981C32.4256 6.27642 32.5606 6.43456 32.6602 6.64424C32.7608 6.85272 32.8112 7.1086 32.8112 7.41185C32.8112 7.71155 32.762 7.96624 32.6637 8.17591C32.5654 8.38559 32.4315 8.54551 32.2621 8.65567C32.0927 8.76584 31.9008 8.82093 31.6864 8.82093C31.5301 8.82093 31.4003 8.79486 31.2973 8.74274C31.1942 8.69062 31.1113 8.62784 31.0485 8.55439C30.9869 8.47976 30.9389 8.40928 30.9046 8.34294H30.8779V9.79644H30.2347ZM30.8655 7.4083C30.8655 7.5848 30.8904 7.73939 30.9401 7.87207C30.9911 8.00474 31.0639 8.10839 31.1587 8.18302C31.2546 8.25647 31.3707 8.29319 31.507 8.29319C31.6491 8.29319 31.7682 8.25528 31.8641 8.17947C31.9601 8.10247 32.0323 7.99763 32.0809 7.86496C32.1306 7.7311 32.1555 7.57888 32.1555 7.4083C32.1555 7.2389 32.1312 7.08846 32.0827 6.95697C32.0341 6.82548 31.9618 6.72242 31.8659 6.64779C31.7699 6.57316 31.6503 6.53585 31.507 6.53585C31.3695 6.53585 31.2529 6.57198 31.1569 6.64424C31.061 6.7165 30.9881 6.81778 30.9383 6.94808C30.8898 7.07839 30.8655 7.23179 30.8655 7.4083ZM34.0053 5.13388V8.77295H33.362V5.13388H34.0053ZM35.875 8.82626C35.6014 8.82626 35.365 8.7694 35.166 8.65567C34.9682 8.54077 34.816 8.37848 34.7094 8.16881C34.6027 7.95795 34.5494 7.70978 34.5494 7.42429C34.5494 7.14354 34.6027 6.89715 34.7094 6.6851C34.8172 6.47188 34.9676 6.30603 35.1607 6.18757C35.3538 6.06793 35.5806 6.00811 35.8412 6.00811C36.0094 6.00811 36.1682 6.03535 36.3174 6.08985C36.4679 6.14315 36.6006 6.22607 36.7155 6.33861C36.8316 6.45115 36.9228 6.59448 36.9891 6.76862C37.0554 6.94157 37.0886 7.14769 37.0886 7.38698V7.58421H34.8515V7.15065H36.472C36.4708 7.02745 36.4442 6.91788 36.3921 6.82192C36.3399 6.72479 36.2671 6.64838 36.1735 6.59271C36.0811 6.53703 35.9733 6.50919 35.8501 6.50919C35.7186 6.50919 35.6031 6.54118 35.5036 6.60514C35.4041 6.66793 35.3265 6.75085 35.2709 6.85391C35.2164 6.95578 35.1885 7.06773 35.1873 7.18974V7.56822C35.1873 7.72695 35.2164 7.86318 35.2744 7.9769C35.3324 8.08944 35.4136 8.17591 35.5178 8.23633C35.6221 8.29556 35.7441 8.32517 35.8839 8.32517C35.9775 8.32517 36.0622 8.31214 36.138 8.28608C36.2138 8.25884 36.2795 8.21915 36.3352 8.16703C36.3909 8.11491 36.4329 8.05035 36.4614 7.97335L37.062 8.04087C37.024 8.19961 36.9518 8.3382 36.8452 8.45666C36.7397 8.57394 36.6047 8.66515 36.44 8.7303C36.2754 8.79427 36.087 8.82626 35.875 8.82626ZM40.0609 9.8533C39.8299 9.8533 39.6315 9.82191 39.4656 9.75912C39.2998 9.69752 39.1665 9.6146 39.0658 9.51036C38.9652 9.40611 38.8953 9.29062 38.8562 9.16386L39.4354 9.02349C39.4615 9.0768 39.4994 9.12951 39.5492 9.18163C39.5989 9.23494 39.6658 9.27877 39.7499 9.31312C39.8352 9.34866 39.9424 9.36643 40.0716 9.36643C40.254 9.36643 40.405 9.32201 40.5247 9.23316C40.6443 9.1455 40.7041 9.00098 40.7041 8.7996V8.28253H40.6721C40.639 8.34886 40.5904 8.41698 40.5264 8.48687C40.4637 8.55676 40.3801 8.6154 40.2759 8.66278C40.1728 8.71017 40.0431 8.73386 39.8868 8.73386C39.6771 8.73386 39.487 8.6847 39.3164 8.58638C39.147 8.48687 39.0119 8.3388 38.9113 8.14215C38.8117 7.94433 38.762 7.69675 38.762 7.39941C38.762 7.09971 38.8117 6.8468 38.9113 6.64068C39.0119 6.43338 39.1476 6.27642 39.3182 6.16981C39.4887 6.06201 39.6789 6.00811 39.8885 6.00811C40.0485 6.00811 40.18 6.03535 40.283 6.08985C40.3873 6.14315 40.4702 6.20771 40.5318 6.28353C40.5934 6.35816 40.6402 6.42864 40.6721 6.49498H40.7077V6.04365H41.342V8.81737C41.342 9.05074 41.2864 9.24382 41.175 9.39664C41.0637 9.54945 40.9114 9.66376 40.7183 9.73958C40.5253 9.81539 40.3061 9.8533 40.0609 9.8533ZM40.0662 8.22922C40.2025 8.22922 40.3185 8.19605 40.4145 8.12972C40.5105 8.06338 40.5833 7.96802 40.6331 7.84364C40.6828 7.71925 40.7077 7.57 40.7077 7.39586C40.7077 7.22409 40.6828 7.07365 40.6331 6.94453C40.5845 6.81541 40.5122 6.71531 40.4163 6.64424C40.3215 6.57198 40.2048 6.53585 40.0662 6.53585C39.9229 6.53585 39.8033 6.57316 39.7073 6.64779C39.6113 6.72242 39.5391 6.82489 39.4905 6.95519C39.4419 7.08431 39.4177 7.2312 39.4177 7.39586C39.4177 7.56289 39.4419 7.70918 39.4905 7.83475C39.5403 7.95913 39.6131 8.05627 39.7091 8.12616C39.8062 8.19487 39.9253 8.22922 40.0662 8.22922ZM43.1918 8.82626C42.9252 8.82626 42.6942 8.76762 42.4988 8.65034C42.3033 8.53307 42.1517 8.369 42.0439 8.15815C41.9373 7.94729 41.884 7.70089 41.884 7.41896C41.884 7.13703 41.9373 6.89004 42.0439 6.678C42.1517 6.46595 42.3033 6.3013 42.4988 6.18402C42.6942 6.06675 42.9252 6.00811 43.1918 6.00811C43.4583 6.00811 43.6893 6.06675 43.8848 6.18402C44.0802 6.3013 44.2313 6.46595 44.3379 6.678C44.4457 6.89004 44.4996 7.13703 44.4996 7.41896C44.4996 7.70089 44.4457 7.94729 44.3379 8.15815C44.2313 8.369 44.0802 8.53307 43.8848 8.65034C43.6893 8.76762 43.4583 8.82626 43.1918 8.82626ZM43.1953 8.31096C43.3399 8.31096 43.4607 8.27127 43.5578 8.19191C43.655 8.11135 43.7272 8.00356 43.7746 7.86851C43.8232 7.73347 43.8475 7.58303 43.8475 7.41718C43.8475 7.25015 43.8232 7.09912 43.7746 6.96408C43.7272 6.82785 43.655 6.71946 43.5578 6.6389C43.4607 6.55835 43.3399 6.51808 43.1953 6.51808C43.0473 6.51808 42.9241 6.55835 42.8257 6.6389C42.7286 6.71946 42.6558 6.82785 42.6072 6.96408C42.5598 7.09912 42.5361 7.25015 42.5361 7.41718C42.5361 7.58303 42.5598 7.73347 42.6072 7.86851C42.6558 8.00356 42.7286 8.11135 42.8257 8.19191C42.9241 8.27127 43.0473 8.31096 43.1953 8.31096ZM45.0455 8.77295V6.04365H45.6888V8.77295H45.0455ZM45.3689 5.65629C45.267 5.65629 45.1794 5.62252 45.1059 5.555C45.0325 5.4863 44.9958 5.40397 44.9958 5.30801C44.9958 5.21088 45.0325 5.12855 45.1059 5.06103C45.1794 4.99232 45.267 4.95797 45.3689 4.95797C45.472 4.95797 45.5596 4.99232 45.6319 5.06103C45.7053 5.12855 45.7421 5.21088 45.7421 5.30801C45.7421 5.40397 45.7053 5.4863 45.6319 5.555C45.5596 5.62252 45.472 5.65629 45.3689 5.65629ZM46.9934 7.17375V8.77295H46.3502V6.04365H46.965V6.50742H46.997C47.0598 6.3546 47.1599 6.23318 47.2973 6.14315C47.4359 6.05312 47.6071 6.00811 47.8108 6.00811C47.9992 6.00811 48.1632 6.04839 48.303 6.12894C48.444 6.20949 48.553 6.32617 48.6299 6.47898C48.7081 6.6318 48.7466 6.81719 48.7454 7.03515V8.77295H48.1022V7.13466C48.1022 6.95223 48.0548 6.80949 47.9601 6.70643C47.8665 6.60337 47.7368 6.55184 47.5709 6.55184C47.4584 6.55184 47.3583 6.57671 47.2706 6.62647C47.1842 6.67503 47.116 6.74552 47.0663 6.83792C47.0177 6.93031 46.9934 7.04226 46.9934 7.17375ZM50.5863 9.8533C50.3553 9.8533 50.1569 9.82191 49.991 9.75912C49.8252 9.69752 49.6919 9.6146 49.5912 9.51036C49.4906 9.40611 49.4207 9.29062 49.3816 9.16386L49.9608 9.02349C49.9869 9.0768 50.0248 9.12951 50.0746 9.18163C50.1243 9.23494 50.1912 9.27877 50.2753 9.31312C50.3606 9.34866 50.4678 9.36643 50.597 9.36643C50.7794 9.36643 50.9304 9.32201 51.0501 9.23316C51.1697 9.1455 51.2295 9.00098 51.2295 8.7996V8.28253H51.1976C51.1644 8.34886 51.1158 8.41698 51.0518 8.48687C50.9891 8.55676 50.9056 8.6154 50.8013 8.66278C50.6982 8.71017 50.5685 8.73386 50.4122 8.73386C50.2025 8.73386 50.0124 8.6847 49.8418 8.58638C49.6724 8.48687 49.5373 8.3388 49.4367 8.14215C49.3372 7.94433 49.2874 7.69675 49.2874 7.39941C49.2874 7.09971 49.3372 6.8468 49.4367 6.64068C49.5373 6.43338 49.673 6.27642 49.8436 6.16981C50.0141 6.06201 50.2043 6.00811 50.4139 6.00811C50.5739 6.00811 50.7054 6.03535 50.8084 6.08985C50.9127 6.14315 50.9956 6.20771 51.0572 6.28353C51.1188 6.35816 51.1656 6.42864 51.1976 6.49498H51.2331V6.04365H51.8674V8.81737C51.8674 9.05074 51.8118 9.24382 51.7004 9.39664C51.5891 9.54945 51.4368 9.66376 51.2438 9.73958C51.0507 9.81539 50.8315 9.8533 50.5863 9.8533ZM50.5916 8.22922C50.7279 8.22922 50.844 8.19605 50.9399 8.12972C51.0359 8.06338 51.1087 7.96802 51.1585 7.84364C51.2082 7.71925 51.2331 7.57 51.2331 7.39586C51.2331 7.22409 51.2082 7.07365 51.1585 6.94453C51.1099 6.81541 51.0376 6.71531 50.9417 6.64424C50.8469 6.57198 50.7302 6.53585 50.5916 6.53585C50.4483 6.53585 50.3287 6.57316 50.2327 6.64779C50.1368 6.72242 50.0645 6.82489 50.0159 6.95519C49.9674 7.08431 49.9431 7.2312 49.9431 7.39586C49.9431 7.56289 49.9674 7.70918 50.0159 7.83475C50.0657 7.95913 50.1385 8.05627 50.2345 8.12616C50.3316 8.19487 50.4507 8.22922 50.5916 8.22922Z" fill="#E1E1E1"/>
</svg>
