<svg width="48" height="21" viewBox="0 0 48 21" fill="none" xmlns="http://www.w3.org/2000/svg">
<rect x="0.0866699" y="0.509766" width="46.9984" height="19.8289" rx="9.91444" fill="#323232"/>
<path d="M8.96426 14.5213C8.96426 14.5213 8.28137 14.5213 8.28137 13.8384C8.28137 13.1555 8.96426 11.1069 12.3787 11.1069C15.7931 11.1069 16.476 13.1555 16.476 13.8384C16.476 14.5213 15.7931 14.5213 15.7931 14.5213H8.96426ZM12.3787 10.424C12.922 10.424 13.4431 10.2081 13.8273 9.82395C14.2115 9.43975 14.4274 8.91866 14.4274 8.37532C14.4274 7.83199 14.2115 7.3109 13.8273 6.9267C13.4431 6.5425 12.922 6.32666 12.3787 6.32666C11.8354 6.32666 11.3143 6.5425 10.9301 6.9267C10.5459 7.3109 10.33 7.83199 10.33 8.37532C10.33 8.91866 10.5459 9.43975 10.9301 9.82395C11.3143 10.2081 11.8354 10.424 12.3787 10.424Z" fill="#E1E1E1"/>
<path d="M21.7859 12.9243V12.1444L23.8549 10.1161C24.0528 9.91631 24.2177 9.7388 24.3496 9.5836C24.4815 9.42839 24.5805 9.27804 24.6464 9.13254C24.7124 8.98704 24.7454 8.83184 24.7454 8.66693C24.7454 8.47875 24.7027 8.31773 24.6173 8.18387C24.532 8.04807 24.4146 7.94331 24.2652 7.86959C24.1158 7.79586 23.9461 7.759 23.7559 7.759C23.56 7.759 23.3883 7.79974 23.2409 7.88123C23.0934 7.96077 22.979 8.07426 22.8975 8.2217C22.8179 8.36914 22.7782 8.54471 22.7782 8.74842H21.7509C21.7509 8.37011 21.8373 8.04128 22.0099 7.76191C22.1826 7.48255 22.4202 7.26624 22.7229 7.11298C23.0275 6.95971 23.3767 6.88308 23.7705 6.88308C24.1701 6.88308 24.5213 6.95777 24.8239 7.10716C25.1266 7.25654 25.3613 7.46121 25.5282 7.72117C25.6969 7.98114 25.7813 8.27796 25.7813 8.61164C25.7813 8.83475 25.7387 9.05397 25.6533 9.26931C25.5679 9.48465 25.4176 9.72328 25.2022 9.98518C24.9888 10.2471 24.6891 10.5643 24.303 10.9368L23.2758 11.9815V12.0222H25.8715V12.9243H21.7859ZM27.5361 12.9883C27.3595 12.9883 27.2082 12.9263 27.0821 12.8021C26.956 12.6779 26.8939 12.5266 26.8959 12.3481C26.8939 12.1735 26.956 12.0241 27.0821 11.9C27.2082 11.7758 27.3595 11.7137 27.5361 11.7137C27.7068 11.7137 27.8552 11.7758 27.9813 11.9C28.1094 12.0241 28.1743 12.1735 28.1763 12.3481C28.1743 12.4665 28.1433 12.5741 28.0832 12.6711C28.025 12.7681 27.9474 12.8457 27.8504 12.9039C27.7553 12.9602 27.6505 12.9883 27.5361 12.9883ZM31.1911 13.0058C30.772 13.0058 30.3996 12.934 30.0736 12.7905C29.7496 12.6469 29.4936 12.4471 29.3054 12.191C29.1172 11.9349 29.0173 11.6391 29.0056 11.3034H30.0998C30.1095 11.4644 30.1629 11.6051 30.2599 11.7254C30.3569 11.8437 30.4859 11.9359 30.6469 12.0018C30.8079 12.0678 30.9884 12.1008 31.1882 12.1008C31.4016 12.1008 31.5907 12.0639 31.7556 11.9902C31.9205 11.9145 32.0495 11.8098 32.1427 11.6759C32.2358 11.542 32.2814 11.3878 32.2794 11.2132C32.2814 11.0328 32.2348 10.8737 32.1398 10.736C32.0447 10.5982 31.907 10.4906 31.7265 10.413C31.5481 10.3354 31.3327 10.2966 31.0805 10.2966H30.5538V9.46428H31.0805C31.2881 9.46428 31.4695 9.42839 31.6247 9.35661C31.7818 9.28483 31.905 9.18395 31.9943 9.05397C32.0835 8.92205 32.1271 8.76976 32.1252 8.59709C32.1271 8.42831 32.0893 8.28184 32.0117 8.15768C31.9361 8.03158 31.8284 7.93361 31.6887 7.86377C31.551 7.79392 31.389 7.759 31.2027 7.759C31.0204 7.759 30.8516 7.79198 30.6964 7.85794C30.5412 7.92391 30.416 8.018 30.321 8.14022C30.2259 8.2605 30.1755 8.40406 30.1697 8.5709H29.1308C29.1385 8.23722 29.2346 7.94428 29.4189 7.69207C29.6051 7.43793 29.8534 7.24005 30.1638 7.09843C30.4742 6.95486 30.8225 6.88308 31.2085 6.88308C31.6063 6.88308 31.9516 6.95777 32.2445 7.10716C32.5394 7.2546 32.7674 7.45345 32.9284 7.70371C33.0894 7.95398 33.1699 8.23043 33.1699 8.53307C33.1719 8.8687 33.0729 9.15 32.8731 9.37698C32.6752 9.60397 32.4152 9.75238 32.0932 9.82222V9.86878C32.5122 9.92698 32.8333 10.0822 33.0564 10.3344C33.2815 10.5846 33.393 10.896 33.3911 11.2685C33.3911 11.6022 33.296 11.901 33.1059 12.1648C32.9177 12.4267 32.6577 12.6323 32.326 12.7817C31.9962 12.9311 31.6179 13.0058 31.1911 13.0058ZM34.4481 12.9243V6.96456H35.5278V9.70291H35.6005L37.9256 6.96456H39.2439L36.9391 9.63889L39.2643 12.9243H37.9664L36.1883 10.3693L35.5278 11.1492V12.9243H34.4481Z" fill="#E1E1E1"/>
</svg>
