<svg width="42" height="21" viewBox="0 0 42 21" fill="none" xmlns="http://www.w3.org/2000/svg">
<rect x="0.085083" y="0.509766" width="41.0741" height="19.8289" rx="9.91444" fill="#323232"/>
<path d="M12.1242 11.5084C13.0333 11.5084 13.7701 10.7803 13.7701 9.8818V7.71301C13.7701 6.81452 13.0333 6.08643 12.1242 6.08643C11.215 6.08643 10.4782 6.81452 10.4782 7.71301V9.8818C10.4782 10.7803 11.215 11.5084 12.1242 11.5084ZM15.3192 9.86243C15.3192 9.81983 15.2844 9.78498 15.2418 9.78498H14.6609C14.6183 9.78498 14.5834 9.81983 14.5834 9.86243C14.5834 11.2208 13.4826 12.3217 12.1242 12.3217C10.7658 12.3217 9.66491 11.2208 9.66491 9.86243C9.66491 9.81983 9.63006 9.78498 9.58746 9.78498H9.00653C8.96393 9.78498 8.92908 9.81983 8.92908 9.86243C8.92908 11.4958 10.1548 12.8435 11.7369 13.0343V14.0257H10.3301C10.1974 14.0257 10.0909 14.1642 10.0909 14.3356V14.6841C10.0909 14.7267 10.118 14.7616 10.151 14.7616H14.0974C14.1303 14.7616 14.1574 14.7267 14.1574 14.6841V14.3356C14.1574 14.1642 14.0509 14.0257 13.9183 14.0257H12.4727V13.0391C14.0732 12.8648 15.3192 11.5094 15.3192 9.86243Z" fill="#E1E1E1"/>
<path d="M20.6222 5.4668V15.3812" stroke="#E1E1E1" stroke-width="0.495722"/>
<g clip-path="url(#clip0_440_5282)">
<path d="M30.1116 11.9111V8.93676C30.1116 8.39146 29.6655 7.94531 29.1202 7.94531H25.6501C25.1048 7.94531 24.6587 8.39146 24.6587 8.93676V11.9111C24.6587 12.4564 25.1048 12.9025 25.6501 12.9025H29.1202C29.6655 12.9025 30.1116 12.4564 30.1116 11.9111ZM30.6074 10.6718L33.5817 12.9025V7.94531L30.6074 10.1761V10.6718Z" fill="#E1E1E1"/>
</g>
<defs>
<clipPath id="clip0_440_5282">
<rect width="9.91444" height="9.91444" fill="white" transform="translate(24.163 5.4668)"/>
</clipPath>
</defs>
</svg>
