<svg width="24" height="25" viewBox="0 0 24 25" fill="none" xmlns="http://www.w3.org/2000/svg">
<path d="M19.8 7.90664H13.6268L14.8621 4.20294C15.0843 3.53414 14.9721 2.79274 14.5596 2.22074C14.1471 1.64874 13.4783 1.30664 12.7732 1.30664H11C10.6733 1.30664 10.3642 1.45184 10.1541 1.70264L4.9841 7.90664H2.2C0.9867 7.90664 0 8.89334 0 10.1066V20.0066C0 21.2199 0.9867 22.2066 2.2 22.2066H16.8377C17.2853 22.2052 17.7219 22.0679 18.0897 21.8129C18.4576 21.558 18.7395 21.1974 18.898 20.7788L21.9307 12.6927C21.9767 12.5692 22.0002 12.4385 22 12.3066V10.1066C22 8.89334 21.0133 7.90664 19.8 7.90664ZM2.2 10.1066H4.4V20.0066H2.2V10.1066ZM19.8 12.1075L16.8377 20.0066H6.6V9.40484L11.5148 3.50664H12.7754L11.0572 8.65794C11.0014 8.82329 10.9859 8.99955 11.0118 9.17211C11.0378 9.34467 11.1045 9.50856 11.2064 9.65019C11.3084 9.79181 11.4426 9.9071 11.598 9.98648C11.7534 10.0659 11.9255 10.1071 12.1 10.1066H19.8V12.1075Z" fill="white"/>
</svg>
