<svg width="22" height="25" viewBox="0 0 22 25" fill="none" xmlns="http://www.w3.org/2000/svg">
<path d="M7.38102 10.1271C7.38102 9.88539 7.47633 9.65356 7.64597 9.48263C7.81562 9.31169 8.04571 9.21566 8.28563 9.21566H13.7133C13.9532 9.21566 14.1833 9.31169 14.3529 9.48263C14.5226 9.65356 14.6179 9.88539 14.6179 10.1271C14.6179 10.3689 14.5226 10.6007 14.3529 10.7716C14.1833 10.9426 13.9532 11.0386 13.7133 11.0386H8.28563C8.04571 11.0386 7.81562 10.9426 7.64597 10.7716C7.47633 10.6007 7.38102 10.3689 7.38102 10.1271ZM8.28563 12.8615C8.04571 12.8615 7.81562 12.9575 7.64597 13.1285C7.47633 13.2994 7.38102 13.5312 7.38102 13.773C7.38102 14.0147 7.47633 14.2465 7.64597 14.4175C7.81562 14.5884 8.04571 14.6844 8.28563 14.6844H11.904C12.144 14.6844 12.3741 14.5884 12.5437 14.4175C12.7133 14.2465 12.8087 14.0147 12.8087 13.773C12.8087 13.5312 12.7133 13.2994 12.5437 13.1285C12.3741 12.9575 12.144 12.8615 11.904 12.8615H8.28563ZM0.144179 11.95C0.144641 9.54205 0.933764 7.20152 2.38914 5.29152C3.84451 3.38153 5.88477 2.00883 8.19343 1.38638C10.5021 0.763936 12.9501 0.926527 15.1577 1.84893C17.3653 2.77134 19.209 4.40201 20.403 6.48796C21.5969 8.57392 22.0743 10.9986 21.7611 13.3858C21.4478 15.773 20.3614 17.9893 18.6705 19.691C16.9795 21.3926 14.7785 22.4844 12.4088 22.7971C10.0392 23.1097 7.63335 22.6257 5.56457 21.4201L1.33464 22.842C1.17836 22.8945 1.01081 22.9031 0.850051 22.8668C0.689295 22.8304 0.541445 22.7505 0.422458 22.6357C0.303472 22.5209 0.217868 22.3755 0.174884 22.2152C0.1319 22.055 0.133169 21.8859 0.178554 21.7263L1.46671 17.1855C0.596511 15.5799 0.141677 13.7794 0.144179 11.95ZM10.9994 2.83546C9.40224 2.83536 7.83348 3.26135 6.45263 4.07013C5.07179 4.87891 3.92809 6.04165 3.13779 7.44014C2.34749 8.83864 1.93878 10.423 1.95319 12.0323C1.9676 13.6415 2.40462 15.2182 3.21984 16.6021C3.28256 16.709 3.32294 16.8277 3.33849 16.9509C3.35405 17.0741 3.34445 17.1992 3.3103 17.3185L2.38941 20.5633L5.38908 19.5571C5.51648 19.5142 5.65174 19.5005 5.78505 19.5169C5.91836 19.5333 6.04638 19.5794 6.1598 19.6519C7.34532 20.4078 8.68911 20.8756 10.0849 21.0181C11.4808 21.1607 12.8904 20.9742 14.2024 20.4734C15.5143 19.9725 16.6927 19.1711 17.6443 18.1324C18.596 17.0936 19.2948 15.8461 19.6855 14.4885C20.0762 13.1308 20.1482 11.7001 19.8957 10.3096C19.6432 8.91907 19.0731 7.60678 18.2306 6.47645C17.388 5.34612 16.2961 4.42875 15.0411 3.79683C13.7861 3.16492 12.4024 2.83579 10.9994 2.83546Z" fill="white"/>
</svg>
