<svg width="25" height="24" viewBox="0 0 25 24" fill="none" xmlns="http://www.w3.org/2000/svg">
<path d="M21.3429 11.5C21.3463 12.8199 21.038 14.1219 20.4429 15.3C19.7373 16.7118 18.6526 17.8992 17.3103 18.7293C15.968 19.5594 14.4211 19.9994 12.8429 20C11.523 20.0035 10.221 19.6951 9.0429 19.1L3.3429 21L5.2429 15.3C4.64783 14.1219 4.33945 12.8199 4.3429 11.5C4.34351 9.92179 4.78351 8.37488 5.61361 7.03258C6.44372 5.69028 7.63115 4.6056 9.0429 3.90003C10.221 3.30496 11.523 2.99659 12.8429 3.00003H13.3429C15.4272 3.11502 17.3959 3.99479 18.872 5.47089C20.3481 6.94699 21.2279 8.91568 21.3429 11V11.5Z" stroke="#959595" stroke-width="2" stroke-linecap="round" stroke-linejoin="round"/>
</svg>
