<svg width="24" height="25" viewBox="0 0 24 25" fill="none" xmlns="http://www.w3.org/2000/svg">
<rect y="1.41406" width="24" height="23" rx="11.5" fill="#353535"/>
<path d="M11.7402 15.332C11.3423 15.332 10.9758 15.2325 10.6407 15.0336C10.3056 14.8242 10.0334 14.5467 9.82395 14.2011C9.625 13.8451 9.52552 13.4524 9.52552 13.0231C9.52552 12.5833 9.625 12.1907 9.82395 11.8451C10.0334 11.4891 10.3056 11.2064 10.6407 10.997C10.9758 10.7875 11.3423 10.6828 11.7402 10.6828C12.3056 10.6828 12.7349 10.8242 13.0281 11.1069V10.7771H14.2375V14.1383H15.604C15.6983 13.7718 15.7454 13.3477 15.7454 12.8661C15.7454 11.6828 15.4365 10.7718 14.8187 10.1331C14.2009 9.48389 13.3161 9.15929 12.1642 9.15929C10.9915 9.15929 10.0596 9.50484 9.36846 10.1959C8.67736 10.887 8.33182 11.8347 8.33182 13.0388C8.33182 14.2221 8.66166 15.154 9.32134 15.8346C9.99149 16.5153 10.8868 16.8556 12.0072 16.8556C13.0543 16.8556 13.8972 16.5728 14.536 16.0074L15.4784 16.9655C14.536 17.7823 13.3894 18.1906 12.0386 18.1906C11.3161 18.1906 10.6407 18.0597 10.0124 17.798C9.38416 17.5362 8.83443 17.1749 8.36323 16.7142C7.89203 16.243 7.52554 15.6933 7.26376 15.065C7.00198 14.4367 6.87109 13.7561 6.87109 13.0231C6.87109 12.2797 7.00198 11.5938 7.26376 10.9656C7.53601 10.3373 7.91297 9.78756 8.39464 9.31636C8.87631 8.84515 9.43652 8.47866 10.0753 8.21689C10.714 7.95511 11.3999 7.82422 12.1328 7.82422C13.1171 7.82422 13.981 8.04411 14.7244 8.4839C15.4784 8.92369 16.0647 9.53101 16.4836 10.3059C16.9129 11.0807 17.1276 11.9708 17.1276 12.976C17.1276 13.8765 16.9391 14.6305 16.5621 15.2378H13.0281V14.9236C12.7349 15.1959 12.3056 15.332 11.7402 15.332ZM11.8344 14.154C12.159 14.154 12.4156 14.0493 12.604 13.8399C12.803 13.62 12.9025 13.3425 12.9025 13.0074C12.9025 12.6619 12.803 12.3844 12.604 12.175C12.4156 11.9655 12.159 11.8608 11.8344 11.8608C11.5203 11.8608 11.2637 11.9708 11.0648 12.1907C10.8658 12.4001 10.7664 12.6723 10.7664 13.0074C10.7664 13.3425 10.8658 13.62 11.0648 13.8399C11.2637 14.0493 11.5203 14.154 11.8344 14.154Z" fill="#8C8C8C"/>
<circle cx="19.528" cy="4.29562" r="3.52805" fill="#FF4E16"/>
<path d="M19.2257 5.83161V3.33846H18.6339V2.75977H19.9044V5.83161H19.2257Z" fill="white"/>
</svg>
