<svg width="16" height="15" viewBox="0 0 16 15" fill="none" xmlns="http://www.w3.org/2000/svg">
<path d="M8 4.16943C8.16576 4.16943 8.32473 4.23199 8.44194 4.34334C8.55915 4.45469 8.625 4.60571 8.625 4.76318V7.13818H11.125C11.2908 7.13818 11.4497 7.20074 11.5669 7.31209C11.6842 7.42344 11.75 7.57446 11.75 7.73193C11.75 7.88941 11.6842 8.04043 11.5669 8.15178C11.4497 8.26313 11.2908 8.32568 11.125 8.32568H8.625V10.7007C8.625 10.8582 8.55915 11.0092 8.44194 11.1205C8.32473 11.2319 8.16576 11.2944 8 11.2944C7.83424 11.2944 7.67527 11.2319 7.55806 11.1205C7.44085 11.0092 7.375 10.8582 7.375 10.7007V8.32568H4.875C4.70924 8.32568 4.55027 8.26313 4.43306 8.15178C4.31585 8.04043 4.25 7.88941 4.25 7.73193C4.25 7.57446 4.31585 7.42344 4.43306 7.31209C4.55027 7.20074 4.70924 7.13818 4.875 7.13818H7.375V4.76318C7.375 4.60571 7.44085 4.45469 7.55806 4.34334C7.67527 4.23199 7.83424 4.16943 8 4.16943Z" fill="#D8FF69"/>
<path d="M0.5 7.73193C0.5 6.79627 0.693993 5.86976 1.0709 5.00531C1.44781 4.14087 2.00026 3.35542 2.6967 2.6938C3.39314 2.03218 4.21993 1.50736 5.12987 1.14929C6.03982 0.791227 7.01509 0.606934 8 0.606934C8.98491 0.606934 9.96018 0.791227 10.8701 1.14929C11.7801 1.50736 12.6069 2.03218 13.3033 2.6938C13.9997 3.35542 14.5522 4.14087 14.9291 5.00531C15.306 5.86976 15.5 6.79627 15.5 7.73193C15.5 9.6216 14.7098 11.4339 13.3033 12.7701C11.8968 14.1063 9.98912 14.8569 8 14.8569C6.01088 14.8569 4.10322 14.1063 2.6967 12.7701C1.29018 11.4339 0.5 9.6216 0.5 7.73193ZM8 1.79443C6.3424 1.79443 4.75269 2.41999 3.58058 3.53349C2.40848 4.64698 1.75 6.15721 1.75 7.73193C1.75 9.30666 2.40848 10.8169 3.58058 11.9304C4.75269 13.0439 6.3424 13.6694 8 13.6694C9.6576 13.6694 11.2473 13.0439 12.4194 11.9304C13.5915 10.8169 14.25 9.30666 14.25 7.73193C14.25 6.15721 13.5915 4.64698 12.4194 3.53349C11.2473 2.41999 9.6576 1.79443 8 1.79443Z" fill="#D8FF69"/>
</svg>
