<svg width="11" height="10" viewBox="0 0 11 10" fill="none" xmlns="http://www.w3.org/2000/svg">
<path d="M5.49996 0.0322266C4.59346 0.0322266 3.70732 0.301034 2.9536 0.804658C2.19987 1.30828 1.61242 2.0241 1.26551 2.86159C0.918612 3.69909 0.827847 4.62064 1.0047 5.50972C1.18154 6.3988 1.61806 7.21548 2.25906 7.85647C2.90005 8.49746 3.71672 8.93398 4.6058 9.11083C5.49488 9.28767 6.41643 9.19691 7.25393 8.85001C8.09142 8.50311 8.80724 7.91565 9.31086 7.16192C9.81449 6.4082 10.0833 5.52206 10.0833 4.61556C10.0833 4.01367 9.96474 3.41767 9.73441 2.86159C9.50408 2.30552 9.16647 1.80026 8.74087 1.37465C8.31527 0.949052 7.81 0.611446 7.25393 0.381112C6.69785 0.150778 6.10185 0.0322266 5.49996 0.0322266ZM5.49996 7.36556C5.40931 7.36556 5.3207 7.33868 5.24532 7.28832C5.16995 7.23795 5.11121 7.16637 5.07652 7.08262C5.04183 6.99887 5.03275 6.90672 5.05043 6.81781C5.06812 6.7289 5.11177 6.64723 5.17587 6.58314C5.23997 6.51904 5.32164 6.47538 5.41054 6.4577C5.49945 6.44001 5.59161 6.44909 5.67536 6.48378C5.75911 6.51847 5.83069 6.57722 5.88105 6.65259C5.93141 6.72796 5.95829 6.81658 5.95829 6.90723C5.95829 7.02878 5.91001 7.14536 5.82405 7.23132C5.7381 7.31727 5.62152 7.36556 5.49996 7.36556ZM5.95829 5.00056V5.53223C5.95829 5.65378 5.91001 5.77036 5.82405 5.85632C5.7381 5.94227 5.62152 5.99056 5.49996 5.99056C5.3784 5.99056 5.26183 5.94227 5.17587 5.85632C5.08992 5.77036 5.04163 5.65378 5.04163 5.53223V4.61556C5.04163 4.494 5.08992 4.37742 5.17587 4.29147C5.26183 4.20551 5.3784 4.15723 5.49996 4.15723C5.63594 4.15723 5.76886 4.11691 5.88192 4.04136C5.99497 3.96582 6.08309 3.85845 6.13513 3.73282C6.18716 3.6072 6.20078 3.46896 6.17425 3.3356C6.14772 3.20224 6.08225 3.07974 5.9861 2.98359C5.88995 2.88744 5.76745 2.82196 5.63409 2.79544C5.50072 2.76891 5.36249 2.78252 5.23687 2.83456C5.11124 2.88659 5.00387 2.97471 4.92833 3.08777C4.85278 3.20083 4.81246 3.33375 4.81246 3.46973C4.81246 3.59128 4.76417 3.70786 4.67822 3.79382C4.59226 3.87977 4.47569 3.92806 4.35413 3.92806C4.23257 3.92806 4.11599 3.87977 4.03004 3.79382C3.94408 3.70786 3.89579 3.59128 3.89579 3.46973C3.8946 3.17195 3.97631 2.87971 4.13177 2.62574C4.28724 2.37177 4.51034 2.16608 4.77608 2.03171C5.04182 1.89734 5.33971 1.83958 5.63641 1.86492C5.93312 1.89025 6.21691 1.99766 6.45602 2.17514C6.69514 2.35262 6.88013 2.59315 6.9903 2.8698C7.10046 3.14645 7.13145 3.44831 7.07979 3.74157C7.02813 4.03484 6.89586 4.30794 6.69778 4.53029C6.49971 4.75264 6.24366 4.91548 5.95829 5.00056Z" fill="#434343"/>
</svg>
