<svg width="18" height="22" viewBox="0 0 18 22" fill="none" xmlns="http://www.w3.org/2000/svg">
<path d="M15.4286 2.06934H2.57183C1.15152 2.06934 0.000321433 3.24443 0.000241076 4.69434L4.20663e-09 17.7824C-8.03529e-05 19.2672 1.15112 20.4443 2.57143 20.4443H11.8969C12.9198 20.4443 13.901 20.0293 14.6246 19.291L16.8698 16.9986C17.5942 16.2238 18 15.26 18 14.2141V4.69434C18 3.25059 16.8429 2.06934 15.4286 2.06934ZM2.11701 18.2828C2.0467 18.2131 1.92857 18.0572 1.92857 17.8193L1.92937 4.73125C1.92937 4.33258 2.21786 4.03809 2.57223 4.03809H15.4286C15.7771 4.03809 16.0714 4.33865 16.0714 4.69434V12.5693H12.5357C11.2942 12.5693 10.2857 13.5988 10.2857 14.8662V18.4756H2.57143C2.3396 18.4756 2.18732 18.3566 2.11701 18.2828ZM13.2629 17.8973C12.9737 18.1926 12.608 18.3771 12.2143 18.4428V14.8662C12.2143 14.6855 12.3587 14.5381 12.5357 14.5381H16.0405C15.9755 14.9405 15.7948 15.3125 15.5065 15.6065L13.2629 17.8973Z" fill="white"/>
</svg>
