<svg width="14" height="15" viewBox="0 0 14 15" fill="none" xmlns="http://www.w3.org/2000/svg">
<path fill-rule="evenodd" clip-rule="evenodd" d="M7 0.470703C3.13409 0.470703 0 3.60479 0 7.4707C0 11.3366 3.13409 14.4707 7 14.4707C10.8659 14.4707 14 11.3366 14 7.4707C14 3.60479 10.8659 0.470703 7 0.470703ZM7.63636 10.0162C7.63636 10.1849 7.56932 10.3468 7.44998 10.4661C7.33064 10.5855 7.16877 10.6525 7 10.6525C6.83123 10.6525 6.66936 10.5855 6.55002 10.4661C6.43068 10.3468 6.36364 10.1849 6.36364 10.0162V8.10707H4.45455C4.28577 8.10707 4.12391 8.04002 4.00457 7.92068C3.88523 7.80134 3.81818 7.63948 3.81818 7.4707C3.81818 7.30193 3.88523 7.14007 4.00457 7.02073C4.12391 6.90138 4.28577 6.83434 4.45455 6.83434H6.36364V4.92525C6.36364 4.75647 6.43068 4.59461 6.55002 4.47527C6.66936 4.35593 6.83123 4.28888 7 4.28888C7.16877 4.28888 7.33064 4.35593 7.44998 4.47527C7.56932 4.59461 7.63636 4.75647 7.63636 4.92525V6.83434H9.54545C9.71423 6.83434 9.87609 6.90138 9.99543 7.02073C10.1148 7.14007 10.1818 7.30193 10.1818 7.4707C10.1818 7.63948 10.1148 7.80134 9.99543 7.92068C9.87609 8.04002 9.71423 8.10707 9.54545 8.10707H7.63636V10.0162Z" fill="#D8FF69"/>
</svg>
