<svg width="13" height="14" viewBox="0 0 13 14" fill="none" xmlns="http://www.w3.org/2000/svg">
<path d="M11.5397 4.71944C11.5544 4.60967 11.5621 4.4999 11.5621 4.39076C11.5621 2.88989 10.1866 1.68554 8.6602 1.88931C8.21538 1.11144 7.3681 0.605469 6.4271 0.605469C5.4861 0.605469 4.63882 1.11144 4.194 1.88931C2.6644 1.68554 1.29206 2.88989 1.29206 4.39076C1.29206 4.4999 1.29976 4.60967 1.31453 4.71944C0.523088 5.15728 0.00830078 5.99004 0.00830078 6.91428C0.00830078 7.83852 0.523088 8.67128 1.31453 9.10911C1.29972 9.21808 1.29221 9.32788 1.29206 9.4378C1.29206 10.9387 2.6644 12.1399 4.194 11.9392C4.63882 12.7171 5.4861 13.2231 6.4271 13.2231C7.3681 13.2231 8.21538 12.7171 8.6602 11.9392C10.1866 12.1399 11.5621 10.9387 11.5621 9.4378C11.5621 9.32866 11.5544 9.21889 11.5397 9.10911C12.3311 8.67128 12.8459 7.83852 12.8459 6.91428C12.8459 5.99004 12.3311 5.15728 11.5397 4.71944ZM5.75634 9.70025L3.40256 7.35716L4.3166 6.4714L5.76532 7.91359L8.54274 5.20459L9.4465 6.10044L5.75634 9.70025Z" fill="#D8FF69"/>
</svg>
