<svg width="17" height="18" viewBox="0 0 17 18" fill="none" xmlns="http://www.w3.org/2000/svg">
<path d="M1.83334 5.95589H15.1667M1.83334 4.53923C1.83334 4.1635 1.97382 3.80317 2.22387 3.53749C2.47392 3.27181 2.81305 3.12256 3.16668 3.12256H13.8333C14.187 3.12256 14.5261 3.27181 14.7762 3.53749C15.0262 3.80317 15.1667 4.1635 15.1667 4.53923V13.0392C15.1667 13.4149 15.0262 13.7753 14.7762 14.041C14.5261 14.3066 14.187 14.4559 13.8333 14.4559H3.16668C2.81305 14.4559 2.47392 14.3066 2.22387 14.041C1.97382 13.7753 1.83334 13.4149 1.83334 13.0392V4.53923Z" stroke="#D8FF69" stroke-linecap="round" stroke-linejoin="round"/>
<path d="M1.83334 8.78906H6.50001C6.50001 9.4974 6.90001 10.9141 8.50001 10.9141C10.1 10.9141 10.5 9.4974 10.5 8.78906H15.1667" stroke="#D8FF69" stroke-linecap="round" stroke-linejoin="round"/>
</svg>
